<svg width="32" height="32" viewBox="0 0 32 32" fill="none" xmlns="http://www.w3.org/2000/svg">
  <!-- Background circle -->
  <circle cx="16" cy="16" r="16" fill="#1e40af"/>
  
  <!-- Heart symbol -->
  <path d="M16 22C16 22 12 18 10 16C8 14 8 11 10 9C12 7 16 9 16 11C16 9 20 7 22 9C24 11 24 14 22 16C20 18 16 22 16 22Z" fill="#ffffff"/>
  
  <!-- Hands reaching out -->
  <path d="M8 12C8 12 6 14 6 16C6 18 8 20 10 20" stroke="#ffffff" stroke-width="1.5" stroke-linecap="round" fill="none"/>
  <path d="M24 12C24 12 26 14 26 16C26 18 24 20 22 20" stroke="#ffffff" stroke-width="1.5" stroke-linecap="round" fill="none"/>
  
  <!-- Connection dots -->
  <circle cx="12" cy="16" r="1" fill="#ffffff"/>
  <circle cx="20" cy="16" r="1" fill="#ffffff"/>
</svg> 