<svg width="512" height="512" viewBox="0 0 512 512" fill="none" xmlns="http://www.w3.org/2000/svg">
  <!-- Background circle -->
  <circle cx="256" cy="256" r="256" fill="#1e40af"/>
  
  <!-- Heart symbol -->
  <path d="M256 352C256 352 192 288 160 256C128 224 128 176 160 144C192 112 256 144 256 176C256 144 320 112 352 144C384 176 384 224 352 256C320 288 256 352 256 352Z" fill="#ffffff"/>
  
  <!-- Hands reaching out -->
  <path d="M128 192C128 192 96 224 96 256C96 288 128 320 160 320" stroke="#ffffff" stroke-width="24" stroke-linecap="round" fill="none"/>
  <path d="M384 192C384 192 416 224 416 256C416 288 384 320 352 320" stroke="#ffffff" stroke-width="24" stroke-linecap="round" fill="none"/>
  
  <!-- Connection dots -->
  <circle cx="192" cy="256" r="16" fill="#ffffff"/>
  <circle cx="320" cy="256" r="16" fill="#ffffff"/>
  
  <!-- NGO text -->
  <text x="256" y="420" text-anchor="middle" fill="#ffffff" font-family="Arial, sans-serif" font-size="48" font-weight="bold">NGO</text>
  <text x="256" y="460" text-anchor="middle" fill="#ffffff" font-family="Arial, sans-serif" font-size="32">REACH</text>
</svg> 